<svg width="35" height="35" viewBox="0 0 35 35" fill="none" xmlns="http://www.w3.org/2000/svg">
<path d="M9.76953 13.5038L17.4987 17.981L25.1695 13.533" stroke="#3F3F3F" stroke-width="2" stroke-linecap="round" stroke-linejoin="round"/>
<path d="M17.5 25.9143V17.9664" stroke="#3F3F3F" stroke-width="2" stroke-linecap="round" stroke-linejoin="round"/>
<path d="M15.6894 9.17271L11.0227 11.7685C9.97267 12.3519 9.09766 13.8248 9.09766 15.0353V19.979C9.09766 21.1894 9.95809 22.6624 11.0227 23.2457L15.6894 25.8415C16.681 26.3957 18.3144 26.3957 19.3206 25.8415L23.9873 23.2457C25.0373 22.6624 25.9123 21.1894 25.9123 19.979V15.0207C25.9123 13.8102 25.0519 12.3373 23.9873 11.7539L19.3206 9.15811C18.3144 8.60395 16.681 8.60396 15.6894 9.17271Z" stroke="#3F3F3F" stroke-width="2" stroke-linecap="round" stroke-linejoin="round"/>
<path opacity="0.4" d="M32.0833 21.875C32.0833 27.5187 27.5187 32.0833 21.875 32.0833L23.4062 29.5312" stroke="#3F3F3F" stroke-width="2" stroke-linecap="round" stroke-linejoin="round"/>
<path opacity="0.4" d="M2.9165 13.125C2.9165 7.48125 7.48109 2.91667 13.1248 2.91667L11.5936 5.46875" stroke="#3F3F3F" stroke-width="2" stroke-linecap="round" stroke-linejoin="round"/>
</svg>
