<svg width="35" height="35" viewBox="0 0 35 35" fill="none" xmlns="http://www.w3.org/2000/svg">
<path d="M5.81714 21.379L3.60049 19.1624C2.69632 18.2582 2.69632 16.7707 3.60049 15.8665L5.81714 13.6499C6.19631 13.2707 6.50256 12.5269 6.50256 12.0019V8.86648C6.50256 7.58314 7.55256 6.53317 8.83589 6.53317H11.9713C12.4963 6.53317 13.2401 6.22697 13.6192 5.8478L15.8359 3.63111C16.7401 2.72694 18.2276 2.72694 19.1317 3.63111L21.3484 5.8478C21.7276 6.22697 22.4713 6.53317 22.9963 6.53317H26.1317C27.4151 6.53317 28.4651 7.58314 28.4651 8.86648V12.0019C28.4651 12.5269 28.7713 13.2707 29.1505 13.6499L31.3671 15.8665C32.2713 16.7707 32.2713 18.2582 31.3671 19.1624L29.1505 21.379C28.7713 21.7582 28.4651 22.5021 28.4651 23.0271V26.1624C28.4651 27.4457 27.4151 28.4958 26.1317 28.4958H22.9963C22.4713 28.4958 21.7276 28.8019 21.3484 29.1811L19.1317 31.3978C18.2276 32.3019 16.7401 32.3019 15.8359 31.3978L13.6192 29.1811C13.2401 28.8019 12.4963 28.4958 11.9713 28.4958H8.83589C7.55256 28.4958 6.50256 27.4457 6.50256 26.1624V23.0271C6.50256 22.4875 6.19631 21.7436 5.81714 21.379Z" stroke="#3F3F3F" stroke-width="2" stroke-linecap="round" stroke-linejoin="round"/>
<path opacity="0.4" d="M13.125 21.875L21.875 13.125" stroke="#3F3F3F" stroke-width="2" stroke-linecap="round" stroke-linejoin="round"/>
<path opacity="0.4" d="M21.1377 21.1458H21.1508" stroke="#3F3F3F" stroke-width="2.5" stroke-linecap="round" stroke-linejoin="round"/>
<path opacity="0.4" d="M13.8462 13.8542H13.8593" stroke="#3F3F3F" stroke-width="2.5" stroke-linecap="round" stroke-linejoin="round"/>
</svg>
