<svg width="35" height="35" viewBox="0 0 35 35" fill="none" xmlns="http://www.w3.org/2000/svg">
<path d="M2.9165 2.91667H5.45402C7.02902 2.91667 8.26859 4.27292 8.13734 5.83333L6.92692 20.3583C6.72275 22.7354 8.60399 24.7771 10.9957 24.7771H26.5269C28.6269 24.7771 30.4644 23.0563 30.6248 20.9708L31.4123 10.0333C31.5873 7.6125 29.7498 5.64375 27.3144 5.64375H8.48735" stroke="#3F3F3F" stroke-width="2" stroke-miterlimit="10" stroke-linecap="round" stroke-linejoin="round"/>
<path opacity="0.4" d="M23.6979 32.0833C24.7047 32.0833 25.5208 31.2672 25.5208 30.2604C25.5208 29.2536 24.7047 28.4375 23.6979 28.4375C22.6911 28.4375 21.875 29.2536 21.875 30.2604C21.875 31.2672 22.6911 32.0833 23.6979 32.0833Z" stroke="#3F3F3F" stroke-width="2" stroke-miterlimit="10" stroke-linecap="round" stroke-linejoin="round"/>
<path opacity="0.4" d="M12.0314 32.0833C13.0382 32.0833 13.8543 31.2672 13.8543 30.2604C13.8543 29.2536 13.0382 28.4375 12.0314 28.4375C11.0246 28.4375 10.2085 29.2536 10.2085 30.2604C10.2085 31.2672 11.0246 32.0833 12.0314 32.0833Z" stroke="#3F3F3F" stroke-width="2" stroke-miterlimit="10" stroke-linecap="round" stroke-linejoin="round"/>
<path opacity="0.4" d="M13.125 11.6667H30.625" stroke="#3F3F3F" stroke-width="2" stroke-miterlimit="10" stroke-linecap="round" stroke-linejoin="round"/>
</svg>
